# Blender v3.2.1 OBJ File: ''
# www.blender.org
mtllib Arrowobj.mtl
o Cube_Cube.001
v 1.000000 0.467929 3.229186
v 1.000000 -1.000000 3.229186
v -1.000000 -1.000000 -3.562366
v -1.000000 0.467929 -3.562366
v -1.000000 0.467929 1.356471
v -1.000000 -1.000000 1.356471
v 1.000000 -1.000000 -1.689651
v 1.000000 0.467929 -1.689651
v 3.925375 0.467929 -3.562366
v 3.925375 -1.000000 -3.562366
v 5.925375 -1.000000 -1.689651
v 5.925375 0.467929 -1.689651
vt 0.375000 0.500000
vt 0.625000 0.500000
vt 0.625000 0.500000
vt 0.375000 0.500000
vt 0.875000 0.500000
vt 0.625000 0.500000
vt 0.875000 0.500000
vt 0.875000 0.500000
vt 0.625000 0.250000
vt 0.375000 0.250000
vt 0.375000 0.250000
vt 0.625000 0.250000
vt 0.125000 0.500000
vt 0.125000 0.500000
vt 0.375000 0.250000
vt 0.625000 0.250000
vt 0.375000 0.500000
vt 0.125000 0.500000
vn 1.0000 0.0000 0.0000
vn 0.0000 1.0000 0.0000
vn -1.0000 0.0000 0.0000
vn 0.0000 -1.0000 0.0000
vn -0.6835 0.0000 0.7300
vn 0.6835 0.0000 -0.7300
vn 0.0000 0.0000 -1.0000
vn 0.0000 0.0000 1.0000
usemtl None
s off
f 7/1/1 8/2/1 1/3/1 2/4/1
f 4/5/2 8/2/2 12/6/2 9/7/2
f 8/2/2 4/5/2 5/8/2 1/3/2
f 4/9/3 3/10/3 6/11/3 5/12/3
f 3/13/4 7/1/4 2/4/4 6/14/4
f 6/14/5 2/4/5 1/3/5 5/8/5
f 10/15/6 9/16/6 12/6/6 11/17/6
f 3/10/7 4/9/7 9/16/7 10/15/7
f 8/2/8 7/1/8 11/17/8 12/6/8
f 7/1/4 3/13/4 10/18/4 11/17/4
