{"accessors":[{"bufferView":0,"byteOffset":0,"componentType":5126,"count":94,"max":[0.0018996625440195203,-0.013134429231286049,0.003393351100385189],"min":[-0.001899921102449298,-0.013249999843537807,-0.0003975267754867673],"type":"VEC3"},{"bufferView":1,"byteOffset":0,"componentType":5126,"count":94,"normalized":false,"type":"VEC2"},{"bufferView":2,"byteOffset":0,"componentType":5125,"count":282,"type":"SCALAR"},{"bufferView":4,"byteOffset":0,"componentType":5126,"count":71292,"max":[0.044080037623643875,0.3999996483325958,0.04437420144677162],"min":[-0.04708462208509445,-0.1998998373746872,-0.00570696871727705],"type":"VEC3"},{"bufferView":5,"byteOffset":0,"componentType":5126,"count":71292,"normalized":false,"type":"VEC2"},{"bufferView":6,"byteOffset":0,"componentType":5125,"count":420276,"type":"SCALAR"}],"asset":{"generator":"VTK","version":"2.0"},"bufferViews":[{"buffer":0,"byteLength":1128,"byteOffset":0},{"buffer":1,"byteLength":752,"byteOffset":0},{"buffer":2,"byteLength":1128,"byteOffset":0},{"buffer":3,"byteLength":273,"byteOffset":0},{"buffer":4,"byteLength":855504,"byteOffset":0},{"buffer":5,"byteLength":570336,"byteOffset":0},{"buffer":6,"byteLength":1681104,"byteOffset":0},{"buffer":7,"byteLength":335,"byteOffset":0}],"buffers":[{"byteLength":1128,"uri":"data:application/octet-stream;base64,"},{"byteLength":752,"uri":"data:application/octet-stream;base64,"},{"byteLength":1128,"uri":"data:application/octet-stream;base64,"},{"byteLength":273,"uri":"data:application/octet-stream;base64,"},{"byteLength":855504,"uri":"data:application/octet-stream;base64,"},{"byteLength":570336,"uri":"data:application/octet-stream;base64,"},{"byteLength":1681104,"uri":"data:application/octet-stream;base64,"},{"byteLength":335,"uri":"data:application/octet-stream;base64,"}],"cameras":[{"perspective":{"aspectRatio":1.4244332493702772,"yfov":0.5235987755982988,"zfar":1.4307390650070548,"znear":0.12290196080348931},"type":"perspective"}],"images":[{"bufferView":3,"mimeType":"image/png"},{"bufferView":7,"mimeType":"image/png"}],"materials":[{"pbrMetallicRoughness":{"baseColorFactor":[1.0,1.0,1.0,1.0],"baseColorTexture":{"index":0,"texCoord":0},"metallicFactor":0.0,"roughnessFactor":1.0}},{"pbrMetallicRoughness":{"baseColorFactor":[1.0,1.0,1.0,1.0],"baseColorTexture":{"index":1,"texCoord":0},"metallicFactor":0.0,"roughnessFactor":1.0}}],"meshes":[{"name":"mesh0","primitives":[{"attributes":{"POSITION":0,"TEXCOORD_0":1},"indices":2,"material":0,"mode":4}]},{"name":"mesh1","primitives":[{"attributes":{"POSITION":3,"TEXCOORD_0":4},"indices":5,"material":1,"mode":4}]}],"nodes":[{"mesh":0,"name":"mesh0"},{"mesh":1,"name":"mesh1"},{"camera":0,"matrix":[0.9011573327936516,0.27526316051078364,-0.3348815522208506,-0.0,0.15176320561154225,0.5232979113854568,0.838526818510969,-0.0,0.40605835907507254,-0.8064672891104966,0.4297989304547259,-0.0,0.39050973319984944,-0.48384341457465774,0.18092039066504026,1.0],"name":"Camera Node"},{"children":[0,1,2],"name":"Renderer Node"}],"samplers":[{"magFilter":9728,"minFilter":9728,"wrapS":33071,"wrapT":33071},{"magFilter":9728,"minFilter":9728,"wrapS":33071,"wrapT":33071}],"scene":0,"scenes":[{"name":"Layer 0","nodes":[3]}],"textures":[{"sampler":0,"source":0},{"sampler":1,"source":1}]}