# Blender v3.2.1 OBJ File: 'Explosions Zeichnung Car body new[1].blend'
# www.blender.org
mtllib Kugellager-hinten-2.mtl
o Circle.013
v 0.727961 0.189158 -2.628159
v 0.727961 0.195989 -2.603687
v 0.727961 0.178279 -2.623677
v 0.727961 0.183578 -2.627334
v 0.727961 0.175287 -2.617976
v 0.727961 0.175287 -2.611538
v 0.727961 0.195989 -2.625827
v 0.727961 0.200258 -2.621008
v 0.727961 0.201799 -2.614757
v 0.727961 0.200258 -2.608506
v 0.727961 0.189969 -2.601404
v 0.727961 0.183578 -2.602180
v 0.727961 0.178279 -2.605837
v 0.725399 0.188285 -2.647078
v 0.725076 0.188285 -2.646753
v 0.725076 0.194527 -2.646138
v 0.725399 0.194590 -2.646457
v 0.725076 0.200528 -2.644318
v 0.725399 0.200653 -2.644618
v 0.725076 0.206059 -2.641361
v 0.725399 0.206240 -2.641631
v 0.725076 0.210907 -2.637383
v 0.725399 0.211137 -2.637612
v 0.725076 0.214886 -2.632535
v 0.725399 0.215156 -2.632715
v 0.725076 0.217843 -2.627003
v 0.725399 0.218143 -2.627128
v 0.725076 0.219663 -2.621002
v 0.725399 0.219982 -2.621065
v 0.725076 0.220278 -2.614760
v 0.725399 0.220603 -2.614760
v 0.725076 0.219664 -2.608529
v 0.725399 0.219982 -2.608456
v 0.725076 0.217835 -2.602498
v 0.725399 0.218143 -2.602393
v 0.725076 0.214893 -2.596994
v 0.725399 0.215156 -2.596806
v 0.725076 0.210907 -2.592138
v 0.725399 0.211137 -2.591909
v 0.725076 0.206059 -2.588160
v 0.725399 0.206240 -2.587889
v 0.725076 0.200528 -2.585203
v 0.725399 0.200653 -2.584903
v 0.725076 0.194527 -2.583383
v 0.725399 0.194590 -2.583064
v 0.725076 0.188285 -2.582768
v 0.725399 0.188285 -2.582443
v 0.725076 0.182040 -2.583383
v 0.725399 0.181981 -2.583064
v 0.725076 0.176050 -2.585200
v 0.725399 0.175918 -2.584903
v 0.725076 0.170508 -2.588162
v 0.725399 0.170331 -2.587889
v 0.725076 0.165663 -2.592138
v 0.725399 0.165434 -2.591909
v 0.725076 0.161684 -2.596986
v 0.725399 0.161414 -2.596806
v 0.725076 0.158728 -2.602517
v 0.725399 0.158428 -2.602393
v 0.725076 0.156907 -2.608519
v 0.725399 0.156589 -2.608456
v 0.725076 0.156293 -2.614760
v 0.725399 0.155968 -2.614760
v 0.725076 0.156907 -2.621002
v 0.725399 0.156589 -2.621065
v 0.725076 0.158728 -2.627003
v 0.725399 0.158428 -2.627128
v 0.725076 0.161684 -2.632535
v 0.725399 0.161414 -2.632715
v 0.725076 0.165663 -2.637383
v 0.725399 0.165434 -2.637612
v 0.725076 0.170511 -2.641361
v 0.725399 0.170331 -2.641631
v 0.725076 0.176042 -2.644318
v 0.725399 0.175918 -2.644618
v 0.725076 0.182044 -2.646138
v 0.725399 0.181981 -2.646457
v 0.731449 0.188300 -2.646753
v 0.731126 0.188285 -2.647078
v 0.731449 0.194520 -2.646140
v 0.731126 0.194590 -2.646457
v 0.731449 0.200528 -2.644318
v 0.731126 0.200653 -2.644618
v 0.731449 0.206059 -2.641361
v 0.731126 0.206240 -2.641631
v 0.731449 0.210907 -2.637383
v 0.731126 0.211137 -2.637612
v 0.731449 0.214886 -2.632535
v 0.731126 0.215156 -2.632715
v 0.731449 0.217843 -2.627003
v 0.731126 0.218143 -2.627128
v 0.731449 0.219663 -2.621002
v 0.731126 0.219982 -2.621065
v 0.731449 0.220278 -2.614760
v 0.731126 0.220603 -2.614760
v 0.731126 0.219982 -2.608456
v 0.731449 0.219663 -2.608519
v 0.731449 0.217843 -2.602517
v 0.731126 0.218143 -2.602393
v 0.731126 0.215156 -2.596806
v 0.731449 0.214886 -2.596986
v 0.731449 0.210907 -2.592138
v 0.731126 0.211137 -2.591909
v 0.731449 0.206059 -2.588160
v 0.731126 0.206240 -2.587889
v 0.731126 0.200653 -2.584903
v 0.731449 0.200528 -2.585203
v 0.731126 0.194590 -2.583064
v 0.731449 0.194527 -2.583383
v 0.731449 0.188285 -2.582768
v 0.731126 0.188285 -2.582443
v 0.731449 0.182044 -2.583383
v 0.731126 0.181981 -2.583064
v 0.731449 0.176042 -2.585203
v 0.731126 0.175918 -2.584903
v 0.731449 0.170511 -2.588160
v 0.731126 0.170331 -2.587889
v 0.731449 0.165663 -2.592138
v 0.731126 0.165434 -2.591909
v 0.731449 0.161684 -2.596986
v 0.731126 0.161414 -2.596806
v 0.731449 0.158728 -2.602517
v 0.731126 0.158428 -2.602393
v 0.731449 0.156907 -2.608519
v 0.731126 0.156589 -2.608456
v 0.731449 0.156293 -2.614760
v 0.731126 0.155968 -2.614760
v 0.731126 0.156589 -2.621065
v 0.731449 0.156907 -2.621002
v 0.731449 0.158728 -2.627003
v 0.731126 0.158428 -2.627128
v 0.731449 0.161684 -2.632535
v 0.731126 0.161414 -2.632715
v 0.731449 0.165663 -2.637383
v 0.731126 0.165434 -2.637612
v 0.731126 0.170331 -2.641631
v 0.731449 0.170511 -2.641361
v 0.731449 0.176042 -2.644318
v 0.731126 0.175918 -2.644618
v 0.731449 0.182037 -2.646136
v 0.731126 0.181981 -2.646457
v 0.725076 0.189189 -2.628490
v 0.725399 0.189158 -2.628159
v 0.725076 0.183456 -2.627643
v 0.725399 0.183578 -2.627334
v 0.725076 0.178034 -2.605608
v 0.725399 0.178279 -2.605837
v 0.725399 0.175287 -2.617976
v 0.725076 0.174964 -2.618056
v 0.725076 0.174964 -2.611458
v 0.725399 0.175287 -2.611538
v 0.725399 0.178279 -2.623677
v 0.725076 0.178030 -2.623897
v 0.725076 0.202138 -2.614733
v 0.725399 0.201799 -2.614757
v 0.725076 0.200553 -2.621163
v 0.725399 0.200258 -2.621008
v 0.725076 0.200576 -2.608397
v 0.725399 0.200258 -2.608506
v 0.725399 0.183578 -2.602180
v 0.725076 0.183443 -2.601875
v 0.725076 0.190018 -2.601077
v 0.725399 0.189969 -2.601404
v 0.725076 0.196153 -2.603404
v 0.725399 0.195989 -2.603687
v 0.725076 0.196174 -2.626105
v 0.725399 0.195989 -2.625827
v 0.731126 0.201799 -2.614757
v 0.731449 0.202132 -2.614757
v 0.731449 0.200553 -2.608351
v 0.731126 0.200258 -2.608506
v 0.731449 0.200553 -2.621163
v 0.731126 0.200258 -2.621008
v 0.731449 0.190009 -2.601074
v 0.731126 0.189969 -2.601404
v 0.731126 0.189158 -2.628159
v 0.731449 0.189143 -2.628494
v 0.731449 0.196188 -2.626089
v 0.731126 0.195989 -2.625827
v 0.731449 0.196178 -2.603413
v 0.731126 0.195989 -2.603687
v 0.731449 0.183460 -2.601869
v 0.731126 0.183578 -2.602180
v 0.731126 0.183578 -2.627334
v 0.731449 0.183475 -2.627656
v 0.731449 0.174964 -2.618056
v 0.731126 0.175287 -2.617976
v 0.731449 0.174964 -2.611458
v 0.731126 0.175287 -2.611538
v 0.731126 0.178279 -2.605837
v 0.731449 0.178030 -2.605616
v 0.731449 0.178030 -2.623897
v 0.731126 0.178279 -2.623677
vt 0.000000 0.000000
vt 0.000000 0.000000
vt 0.000000 0.000000
vt 0.000000 0.000000
vt 0.000000 0.000000
vt 0.000000 0.000000
vt 0.000000 0.000000
vt 0.000000 0.000000
vt 0.000000 0.000000
vt 0.000000 0.000000
vt 0.000000 0.000000
vt 0.000000 0.000000
vt 0.000000 0.000000
vt 0.000000 0.000000
vt 0.000000 0.000000
vt 0.000000 0.000000
vt 0.000000 0.000000
vt 0.000000 0.000000
vt 0.000000 0.000000
vt 0.000000 0.000000
vt 0.000000 0.000000
vt 0.000000 0.000000
vt 0.000000 0.000000
vt 0.000000 0.000000
vt 0.000000 0.000000
vt 0.000000 0.000000
vt 0.000000 0.000000
vt 0.000000 0.000000
vt 0.000000 0.000000
vt 0.000000 0.000000
vt 0.000000 0.000000
vt 0.000000 0.000000
vt 0.000000 0.000000
vt 0.000000 0.000000
vt 0.000000 0.000000
vt 0.000000 0.000000
vt 0.000000 0.000000
vt 0.000000 0.000000
vt 0.000000 0.000000
vt 0.000000 0.000000
vt 0.000000 0.000000
vt 0.000000 0.000000
vt 0.000000 0.000000
vt 0.000000 0.000000
vt 0.000000 0.000000
vt 0.000000 0.000000
vt 0.000000 0.000000
vt 0.000000 0.000000
vt 0.000000 0.000000
vt 0.000000 0.000000
vt 0.000000 0.000000
vt 0.000000 0.000000
vt 0.000000 0.000000
vt 0.000000 0.000000
vt 0.000000 0.000000
vt 0.000000 0.000000
vt 0.000000 0.000000
vt 0.000000 0.000000
vt 0.000000 0.000000
vt 0.000000 0.000000
vt 0.000000 0.000000
vt 0.000000 0.000000
vt 0.000000 0.000000
vt 0.000000 0.000000
vt 0.000000 0.000000
vt 0.000000 0.000000
vt 0.000000 0.000000
vt 0.000000 0.000000
vt 0.000000 0.000000
vt 0.000000 0.000000
vt 0.000000 0.000000
vt 0.000000 0.000000
vt 0.000000 0.000000
vt 0.000000 0.000000
vt 0.000000 0.000000
vt 0.000000 0.000000
vt 0.000000 0.000000
vt 0.000000 0.000000
vt 0.000000 0.000000
vt 0.000000 0.000000
vt 0.000000 0.000000
vt 0.000000 0.000000
vt 0.000000 0.000000
vt 0.000000 0.000000
vt 0.000000 0.000000
vt 0.000000 0.000000
vt 0.000000 0.000000
vt 0.000000 0.000000
vt 0.000000 0.000000
vt 0.000000 0.000000
vt 0.000000 0.000000
vt 0.000000 0.000000
vt 0.000000 0.000000
vt 0.000000 0.000000
vt 0.000000 0.000000
vt 0.000000 0.000000
vt 0.000000 0.000000
vt 0.000000 0.000000
vt 0.000000 0.000000
vt 0.000000 0.000000
vt 0.000000 0.000000
vt 0.000000 0.000000
vt 0.000000 0.000000
vt 0.000000 0.000000
vt 0.000000 0.000000
vt 0.000000 0.000000
vt 0.000000 0.000000
vt 0.000000 0.000000
vt 0.000000 0.000000
vt 0.000000 0.000000
vt 0.000000 0.000000
vt 0.000000 0.000000
vt 0.000000 0.000000
vt 0.000000 0.000000
vt 0.000000 0.000000
vt 0.000000 0.000000
vt 0.000000 0.000000
vt 0.000000 0.000000
vt 0.000000 0.000000
vt 0.000000 0.000000
vt 0.000000 0.000000
vt 0.000000 0.000000
vt 0.000000 0.000000
vt 0.000000 0.000000
vt 0.000000 0.000000
vt 0.000000 0.000000
vt 0.000000 0.000000
vt 0.000000 0.000000
vt 0.000000 0.000000
vt 0.000000 0.000000
vt 0.000000 0.000000
vt 0.000000 0.000000
vt 0.000000 0.000000
vt 0.000000 0.000000
vt 0.000000 0.000000
vt 0.000000 0.000000
vt 0.000000 0.000000
vt 0.000000 0.000000
vt 0.000000 0.000000
vt 0.000000 0.000000
vt 0.000000 0.000000
vt 0.000000 0.000000
vt 0.000000 0.000000
vt 0.000000 0.000000
vt 0.000000 0.000000
vt 0.000000 0.000000
vt 0.000000 0.000000
vt 0.000000 0.000000
vt 0.000000 0.000000
vt 0.000000 0.000000
vt 0.000000 0.000000
vt 0.000000 0.000000
vt 0.000000 0.000000
vt 0.000000 0.000000
vt 0.000000 0.000000
vt 0.000000 0.000000
vt 0.000000 0.000000
vt 0.000000 0.000000
vt 0.000000 0.000000
vt 0.000000 0.000000
vt 0.000000 0.000000
vt 0.000000 0.000000
vt 0.000000 0.000000
vt 0.000000 0.000000
vt 0.000000 0.000000
vt 0.000000 0.000000
vt 0.000000 0.000000
vt 0.000000 0.000000
vt 0.000000 0.000000
vt 0.000000 0.000000
vt 0.000000 0.000000
vt 0.000000 0.000000
vt 0.000000 0.000000
vt 0.000000 0.000000
vt 0.000000 0.000000
vt 0.000000 0.000000
vt 0.000000 0.000000
vt 0.000000 0.000000
vt 0.000000 0.000000
vt 0.000000 0.000000
vt 0.000000 0.000000
vt 0.000000 0.000000
vt 0.000000 0.000000
vt 0.000000 0.000000
vt 0.000000 0.000000
vt 0.000000 0.000000
vt 0.000000 0.000000
vt 0.000000 0.000000
vt 0.000000 0.000000
vt 0.000000 0.000000
vt 0.000000 0.000000
vt 0.000000 0.000000
vt 0.000000 0.000000
vn 0.0000 -0.1951 0.9808
vn 0.0000 -0.3827 0.9239
vn 0.0000 0.7071 -0.7071
vn 0.0000 0.8315 -0.5556
vn 1.0000 -0.0000 0.0000
vn 0.0000 -0.5556 0.8315
vn 0.0000 0.9239 -0.3827
vn 0.0000 0.0000 -1.0000
vn 0.0000 0.1951 -0.9808
vn 0.0000 -0.7071 0.7071
vn 0.0000 0.9808 -0.1951
vn 0.0000 -0.8315 0.5556
vn 0.0000 1.0000 0.0000
vn 0.0000 -0.9239 0.3827
vn 0.0000 0.9808 0.1951
vn 0.0000 -0.9808 0.1951
vn 0.0000 0.9239 0.3827
vn 0.0000 -1.0000 0.0000
vn -1.0000 0.0000 0.0000
vn 0.0000 -0.9808 -0.1951
vn 0.0000 0.8315 0.5556
vn 0.0000 0.7071 0.7071
vn 0.0000 -0.9239 -0.3827
vn 0.0000 0.5556 0.8315
vn 0.0000 -0.8315 -0.5556
vn 0.0000 0.3827 0.9239
vn 0.0000 -0.7071 -0.7071
vn 0.0000 0.1951 0.9808
vn 0.0000 0.3827 -0.9239
vn 0.0000 -0.5556 -0.8315
vn 0.0000 0.0000 1.0000
vn 0.0000 0.5556 -0.8315
vn 0.0000 -0.3827 -0.9239
vn 0.0000 -0.1951 -0.9808
vn -0.7089 -0.0000 -0.7053
vn -0.7089 0.1376 -0.6917
vn -0.7088 0.4988 -0.4988
vn -0.7087 0.5866 -0.3919
vn -0.7088 0.7054 -0.0000
vn -0.7099 0.6910 0.1364
vn -0.7099 0.6906 0.1383
vn -0.7088 0.4988 0.4988
vn -0.7089 0.3918 0.5864
vn -0.7085 -0.0000 0.7057
vn -0.7084 -0.1381 0.6922
vn -0.7084 -0.1373 0.6923
vn -0.7089 -0.4988 0.4987
vn -0.7089 -0.5865 0.3918
vn -0.7089 -0.7053 0.0000
vn -0.7089 -0.6918 -0.1376
vn -0.7088 -0.4988 -0.4988
vn -0.7089 -0.3918 -0.5864
vn -0.7089 -0.1376 -0.6917
vn 0.7089 -0.0013 -0.7053
vn 0.7082 0.1384 -0.6924
vn 0.7081 0.1370 -0.6926
vn 0.7089 0.0016 -0.7053
vn 0.7088 0.4988 -0.4988
vn 0.7087 0.5866 -0.3919
vn 0.7088 0.7054 0.0000
vn 0.7089 0.6918 0.1376
vn 0.7089 0.6516 0.2699
vn 0.7089 0.5865 0.3918
vn 0.7088 0.4988 0.4988
vn 0.7089 0.3918 0.5864
vn 0.7089 0.3919 0.5864
vn 0.7097 -0.1382 -0.6909
vn 0.7097 -0.1368 -0.6911
vn 0.7087 -0.5866 -0.3919
vn 0.7087 -0.4989 -0.4988
vn 0.7087 -0.5867 -0.3919
vn -0.7175 0.6763 0.1667
vn -0.7175 0.6763 -0.1668
vn -0.7175 0.6764 -0.1667
vn -0.7175 -0.6167 0.3237
vn -0.7190 -0.3852 0.5785
vn -0.7175 -0.6168 0.3237
vn -0.7089 0.2699 -0.6516
vn -0.7089 0.6517 -0.2699
vn -0.7089 0.6508 0.2719
vn -0.7090 0.6523 0.2682
vn -0.7092 0.2698 0.6514
vn -0.7089 -0.2692 0.6519
vn -0.7089 -0.2706 0.6513
vn -0.7089 -0.6516 0.2699
vn -0.7088 -0.6517 -0.2699
vn -0.7089 -0.2699 -0.6516
vn 0.7090 0.2699 -0.6516
vn 0.7087 0.6518 -0.2700
vn 0.7090 0.2698 0.6515
vn 0.7088 -0.1376 0.6918
vn 0.7091 -0.2698 0.6515
vn 0.7089 -0.3918 0.5864
vn 0.7088 -0.4988 0.4988
vn 0.7089 -0.3919 0.5864
vn 0.7089 -0.5865 0.3918
vn 0.7089 -0.6517 0.2699
vn 0.7089 -0.7053 0.0000
vn 0.7089 -0.6918 -0.1376
vn 0.7089 -0.3918 -0.5864
vn 0.7089 -0.6918 0.1376
vn -0.7172 -0.0634 0.6940
vn -0.7164 0.2558 0.6491
vn 0.7088 -0.6517 -0.2699
vn 0.7175 -0.0840 -0.6915
vn 0.7174 0.2470 -0.6514
vn 0.7174 0.5214 -0.4620
vn 0.7088 0.1376 0.6919
vn 0.7089 -0.2699 -0.6517
vn -0.7089 0.3918 -0.5864
vn -0.7089 0.6918 -0.1376
vn -0.7078 0.5879 0.3916
vn -0.7078 0.5868 0.3932
vn -0.7089 0.1376 0.6917
vn -0.7092 -0.3920 0.5860
vn -0.7092 -0.3914 0.5864
vn -0.7089 -0.6918 0.1376
vn -0.7087 -0.5866 -0.3919
vn 0.7089 0.3918 -0.5864
vn 0.7088 0.6919 -0.1376
vn 0.7086 0.0000 0.7056
vn -0.7176 0.5213 0.4619
vn -0.7174 0.2504 -0.6500
vn -0.7152 -0.0860 -0.6936
vn -0.7151 -0.0818 -0.6942
vn -0.7172 0.2425 -0.6533
vn 0.7175 -0.6966 0.0001
vn 0.7173 -0.6170 -0.3238
vn 0.7175 -0.6966 -0.0000
vn 0.7170 -0.0544 0.6950
vn 0.7130 -0.3923 0.5812
vn 0.7126 -0.3835 0.5875
vn 0.7155 -0.0757 0.6945
vn -0.7239 -0.6899 -0.0046
vn -0.7235 -0.6903 0.0064
vn -0.7197 0.5186 -0.4617
vn -0.7196 0.5213 -0.4587
vn -0.7108 -0.3953 -0.5818
vn -0.7103 -0.4058 -0.5752
vn 0.7173 -0.3958 -0.5734
vn 0.7175 0.6763 0.1667
vn 0.7174 0.5214 0.4620
vn -0.0000 0.3667 0.9303
vn -0.0000 -0.0910 0.9959
vn 0.0000 0.7485 -0.6631
vn 0.0000 0.3546 -0.9350
vn 0.0000 -0.8855 0.4647
vn 0.0000 -0.5542 0.8324
vn 0.0000 0.9709 -0.2393
vn 0.0000 0.9709 0.2393
vn 0.0000 -0.5681 -0.8230
vn 0.0000 -0.1205 -0.9927
vn 0.0000 -0.8855 -0.4647
vn 0.0000 0.7485 0.6631
vn 0.7175 -0.6168 0.3237
vn 0.7175 0.6764 -0.1667
vn 0.7175 0.6763 -0.1668
vn -0.7158 -0.6117 -0.3368
vn -0.7177 -0.6213 -0.3146
vn 0.7214 0.2592 0.6422
vn 0.7217 0.2500 0.6455
usemtl Zwischen_Scheibe
s 1
f 49/1/1 51/2/2 115/3/2 113/4/1
f 23/5/3 25/6/4 89/7/4 87/8/3
f 177/9/5 78/10/5 80/11/5 82/12/5 84/13/5 86/14/5 88/15/5 90/16/5 92/17/5 94/18/5 169/19/5 172/20/5 178/21/5
f 51/2/2 53/22/6 117/23/6 115/3/2
f 25/6/4 27/24/7 91/25/7 89/7/4
f 14/26/8 17/27/9 81/28/9 79/29/8
f 53/22/6 55/30/10 119/31/10 117/23/6
f 27/24/7 29/32/11 93/33/11 91/25/7
f 55/30/10 57/34/12 121/35/12 119/31/10
f 29/32/11 31/36/13 95/37/13 93/33/11
f 57/34/12 59/38/14 123/39/14 121/35/12
f 31/36/13 33/40/15 96/41/15 95/37/13
f 59/38/14 61/42/16 125/43/16 123/39/14
f 33/40/15 35/44/17 99/45/17 96/41/15
f 61/42/16 63/46/18 127/47/18 125/43/16
f 42/48/19 40/49/19 38/50/19 36/51/19 34/52/19 158/53/19 164/54/19 162/55/19 161/56/19 50/57/19 48/58/19 46/59/19 44/60/19
f 63/46/18 65/61/20 128/62/20 127/47/18
f 37/63/21 39/64/22 103/65/22 100/66/21
f 65/61/20 67/67/23 131/68/23 128/62/20
f 39/64/22 41/69/24 105/70/24 103/65/22
f 67/67/23 69/71/25 133/72/25 131/68/23
f 41/69/24 43/73/26 106/74/26 105/70/24
f 69/71/25 71/75/27 135/76/27 133/72/25
f 43/73/26 45/77/28 108/78/28 106/74/26
f 17/27/9 19/79/29 83/80/29 81/28/9
f 71/75/27 73/81/30 136/82/30 135/76/27
f 45/77/28 47/83/31 111/84/31 108/78/28
f 19/79/29 21/85/32 85/86/32 83/80/29
f 73/81/30 75/87/33 139/88/33 136/82/30
f 47/83/31 49/1/1 113/4/1 111/84/31
f 21/85/32 23/5/3 87/8/3 85/86/32
f 75/87/33 77/89/34 141/90/34 139/88/33
f 35/44/17 37/63/21 100/66/21 99/45/17
f 77/89/34 14/26/8 79/29/8 141/90/34
f 138/91/5 140/92/5 78/10/5 177/9/5 185/93/5 192/94/5 186/95/5 188/96/5 191/97/5 182/98/5 174/99/5 180/100/5 170/101/5 169/19/5 94/18/5 97/102/5 98/103/5 101/104/5 102/105/5 104/106/5 107/107/5 109/108/5 110/109/5 112/110/5 114/111/5 116/112/5 118/113/5 120/114/5 122/115/5 124/116/5 126/117/5 129/118/5 130/119/5 132/120/5 134/121/5 137/122/5
f 15/123/35 16/124/36 17/27/36 14/26/35
f 22/125/37 24/126/38 25/6/38 23/5/37
f 30/127/39 32/128/40 33/40/41 31/36/39
f 38/50/42 40/49/43 41/69/43 39/64/42
f 46/59/44 48/58/45 49/1/46 47/83/44
f 54/129/47 56/130/48 57/34/48 55/30/47
f 62/131/49 64/132/50 65/61/50 63/46/49
f 70/133/51 72/134/52 73/81/52 71/75/51
f 14/26/35 77/89/53 76/135/53 15/123/35
f 79/29/54 81/28/55 80/11/56 78/10/57
f 87/8/58 89/7/59 88/15/59 86/14/58
f 95/37/60 96/41/61 97/102/61 94/18/60
f 99/45/62 100/66/63 101/104/63 98/103/62
f 96/41/61 99/45/62 98/103/62 97/102/61
f 103/65/64 105/70/65 104/106/66 102/105/64
f 78/10/57 140/92/67 141/90/68 79/29/54
f 133/72/69 135/76/70 134/121/70 132/120/71
f 149/136/72 150/137/73 151/138/74 148/139/72
f 156/140/75 166/141/76 167/142/76 157/143/77
f 16/124/36 18/144/78 19/79/78 17/27/36
f 24/126/38 26/145/79 27/24/79 25/6/38
f 32/128/40 34/52/80 35/44/81 33/40/41
f 40/49/43 42/48/82 43/73/82 41/69/43
f 48/58/45 50/57/83 51/2/84 49/1/46
f 56/130/48 58/146/85 59/38/85 57/34/48
f 64/132/50 66/147/86 67/67/86 65/61/50
f 72/134/52 74/148/87 75/87/87 73/81/52
f 81/28/55 83/80/88 82/12/88 80/11/56
f 89/7/59 91/25/89 90/16/89 88/15/59
f 100/66/63 103/65/64 102/105/64 101/104/63
f 105/70/65 106/74/90 107/107/90 104/106/66
f 113/4/91 115/3/92 114/111/92 112/110/91
f 117/23/93 119/31/94 118/113/94 116/112/95
f 121/35/96 123/39/97 122/115/97 120/114/96
f 127/47/98 128/62/99 129/118/99 126/117/98
f 135/76/70 136/82/100 137/122/100 134/121/70
f 125/43/101 127/47/98 126/117/98 124/116/101
f 142/149/102 144/150/103 145/151/103 143/152/102
f 128/62/99 131/68/104 130/119/104 129/118/99
f 174/99/105 182/98/106 183/153/106 175/154/105
f 182/98/106 191/97/107 190/155/107 183/153/106
f 106/74/90 108/78/108 109/108/108 107/107/90
f 136/82/100 139/88/109 138/91/109 137/122/100
f 18/144/78 20/156/110 21/85/110 19/79/78
f 26/145/79 28/157/111 29/32/111 27/24/79
f 34/52/80 36/51/112 37/63/113 35/44/81
f 42/48/82 44/60/114 45/77/114 43/73/82
f 50/57/83 52/158/115 53/22/116 51/2/84
f 58/146/85 60/159/117 61/42/117 59/38/85
f 66/147/86 68/160/118 69/71/118 67/67/86
f 74/148/87 76/135/53 77/89/53 75/87/87
f 83/80/88 85/86/119 84/13/119 82/12/88
f 91/25/89 93/33/120 92/17/120 90/16/89
f 108/78/108 111/84/121 110/109/121 109/108/108
f 144/150/103 153/161/122 152/162/122 145/151/103
f 161/56/123 162/55/124 163/163/125 160/164/126
f 169/19/127 170/101/128 171/165/128 168/166/129
f 177/9/130 178/21/131 179/167/132 176/168/133
f 20/156/110 22/125/37 23/5/37 21/85/110
f 28/157/111 30/127/39 31/36/39 29/32/111
f 36/51/112 38/50/42 39/64/42 37/63/113
f 44/60/114 46/59/44 47/83/44 45/77/114
f 52/158/115 54/129/47 55/30/47 53/22/116
f 60/159/117 62/131/49 63/46/49 61/42/117
f 68/160/118 70/133/51 71/75/51 69/71/118
f 85/86/119 87/8/58 86/14/58 84/13/119
f 93/33/120 95/37/60 94/18/60 92/17/120
f 111/84/121 113/4/91 112/110/91 110/109/121
f 115/3/92 117/23/93 116/112/95 114/111/92
f 119/31/94 121/35/96 120/114/96 118/113/94
f 123/39/97 125/43/101 124/116/101 122/115/97
f 131/68/104 133/72/69 132/120/71 130/119/104
f 139/88/109 141/90/68 140/92/67 138/91/109
f 154/169/134 156/140/75 157/143/77 155/170/135
f 146/171/136 161/56/123 160/164/126 147/172/137
f 162/55/124 164/54/138 165/173/139 163/163/125
f 170/101/128 180/100/140 181/174/140 171/165/128
f 186/95/141 192/94/142 193/175/142 187/176/141
f 26/145/19 24/126/19 22/125/19 20/156/19 18/144/19 16/124/19 15/123/19 76/135/19 74/148/19 72/134/19 70/133/19 68/160/19 66/147/19 64/132/19 62/131/19 60/159/19 58/146/19 56/130/19 54/129/19 52/158/19 50/57/19 161/56/19 146/171/19 150/137/19 149/136/19 153/161/19 144/150/19 142/149/19 166/141/19 156/140/19 154/169/19 158/53/19 34/52/19 32/128/19 30/127/19 28/157/19
usemtl AchseMaterial0
f 145/151/143 4/177/143 1/178/144 143/152/144
f 13/179/145 12/180/146 183/153/146 190/155/145
f 173/181/147 8/182/147 7/183/148 179/167/148
f 151/138/149 6/184/149 5/185/150 148/139/150
f 147/172/145 13/179/145 6/184/149 151/138/149
f 165/173/151 2/186/151 11/187/152 163/163/152
f 171/165/153 10/188/153 9/189/18 168/166/18
f 167/142/148 7/183/148 8/182/147 157/143/147
f 155/170/18 9/189/18 10/188/153 159/190/153
f 159/190/153 10/188/153 2/186/151 165/173/151
f 152/162/154 3/191/154 4/177/143 145/151/143
f 160/164/146 12/180/146 13/179/145 147/172/145
f 157/143/147 8/182/147 9/189/18 155/170/18
f 148/139/150 5/185/150 3/191/154 152/162/154
f 6/184/149 13/179/145 190/155/145 189/192/149
f 5/185/150 6/184/149 189/192/149 187/176/150
f 3/191/154 5/185/150 187/176/150 193/175/154
f 176/168/144 1/178/144 4/177/143 184/193/143
f 11/187/152 2/186/151 181/174/151 175/154/152
f 181/174/151 2/186/151 10/188/153 171/165/153
f 168/166/18 9/189/18 8/182/147 173/181/147
f 12/180/146 11/187/152 175/154/152 183/153/146
f 179/167/148 7/183/148 1/178/144 176/168/144
f 184/193/143 4/177/143 3/191/154 193/175/154
f 163/163/152 11/187/152 12/180/146 160/164/146
f 143/152/144 1/178/144 7/183/148 167/142/148
f 148/139/72 152/162/122 153/161/122 149/136/72
f 173/181/155 179/167/132 178/21/131 172/20/155
f 189/192/156 190/155/107 191/97/107 188/96/157
f 159/190/158 165/173/139 164/54/138 158/53/159
f 143/152/102 167/142/76 166/141/76 142/149/102
f 175/154/105 181/174/140 180/100/140 174/99/105
f 168/166/129 173/181/155 172/20/155 169/19/127
f 176/168/133 184/193/160 185/93/161 177/9/130
f 184/193/160 193/175/142 192/94/142 185/93/161
f 147/172/137 151/138/74 150/137/73 146/171/136
f 155/170/135 159/190/158 158/53/159 154/169/134
f 187/176/141 189/192/156 188/96/157 186/95/141
